<?xml version="1.0" encoding="UTF-8"?>
<!DOCTYPE svg PUBLIC "-//W3C//DTD SVG 1.1//EN" "http://www.w3.org/Graphics/SVG/1.1/DTD/svg11.dtd">
<svg xmlns="http://www.w3.org/2000/svg" version="1.1" width="512px" height="512px" style="shape-rendering:geometricPrecision; text-rendering:geometricPrecision; image-rendering:optimizeQuality; fill-rule:evenodd; clip-rule:evenodd" xmlns:xlink="http://www.w3.org/1999/xlink">
<g><path style="opacity:0.989" fill="#000000" d="M 47.5,-0.5 C 186.167,-0.5 324.833,-0.5 463.5,-0.5C 489.167,5.83333 505.167,21.8333 511.5,47.5C 511.5,186.167 511.5,324.833 511.5,463.5C 505.167,489.167 489.167,505.167 463.5,511.5C 324.833,511.5 186.167,511.5 47.5,511.5C 21.8333,505.167 5.83333,489.167 -0.5,463.5C -0.5,324.833 -0.5,186.167 -0.5,47.5C 5.83333,21.8333 21.8333,5.83333 47.5,-0.5 Z M 58.5,17.5 C 189.834,17.3333 321.167,17.5 452.5,18C 470.005,19.1673 482.505,27.6673 490,43.5C 491.732,48.3504 492.732,53.3504 493,58.5C 493.667,189.833 493.667,321.167 493,452.5C 491.833,470.005 483.333,482.505 467.5,490C 462.65,491.732 457.65,492.732 452.5,493C 321.167,493.667 189.833,493.667 58.5,493C 40.9948,491.833 28.4948,483.333 21,467.5C 19.2685,462.65 18.2685,457.65 18,452.5C 17.3333,321.167 17.3333,189.833 18,58.5C 20.6776,33.9897 34.1776,20.3231 58.5,17.5 Z M 79.5,245.5 C 196.834,245.333 314.167,245.5 431.5,246C 439.299,248.055 441.799,252.888 439,260.5C 437.238,263.268 434.738,264.768 431.5,265C 314.167,265.667 196.833,265.667 79.5,265C 71.7006,262.945 69.2006,258.112 72,250.5C 73.9133,247.72 76.4133,246.053 79.5,245.5 Z"/></g>
<g><path style="opacity:0.946" fill="#000000" d="M 79.5,226.5 C 196.834,226.333 314.167,226.5 431.5,227C 452.687,230.209 461.52,242.376 458,263.5C 453.826,276.339 444.993,283.172 431.5,284C 314.167,284.667 196.833,284.667 79.5,284C 58.0051,280.524 49.1718,268.024 53,246.5C 57.7557,234.224 66.5891,227.557 79.5,226.5 Z M 79.5,245.5 C 76.4133,246.053 73.9133,247.72 72,250.5C 69.2006,258.112 71.7006,262.945 79.5,265C 196.833,265.667 314.167,265.667 431.5,265C 434.738,264.768 437.238,263.268 439,260.5C 441.799,252.888 439.299,248.055 431.5,246C 314.167,245.5 196.834,245.333 79.5,245.5 Z"/></g>
</svg>
